<?xml version="1.0" encoding="utf-8"?>
<!-- Generator: Adobe Illustrator 23.1.0, SVG Export Plug-In . SVG Version: 6.00 Build 0)  -->
<svg version="1.1" id="Слой_1" xmlns="http://www.w3.org/2000/svg" xmlns:xlink="http://www.w3.org/1999/xlink" x="0px" y="0px"
	 viewBox="0 0 841.89 595.28" style="enable-background:new 0 0 841.89 595.28;" xml:space="preserve">
<style type="text/css">
	.st0{fill:#2D9275;}
</style>
<path class="st0" d="M568.57,383.44c-4.58-0.07-8.34,3.6-8.37,8.18c-0.03,4.58,3.69,8.32,8.26,8.3c4.44-0.02,8.08-3.57,8.21-8.03
	C576.81,387.33,573.15,383.51,568.57,383.44z"/>
<path class="st0" d="M559.93,370.54c0.01,4.62,3.76,8.28,8.37,8.18c4.43-0.1,8.02-3.79,8.01-8.23c-0.01-4.6-3.78-8.26-8.4-8.15
	C563.41,362.44,559.92,366.03,559.93,370.54z"/>
<path class="st0" d="M568.36,421.29c4.55,0.04,8.13-3.44,8.21-7.97c0.08-4.65-3.61-8.39-8.23-8.34c-4.43,0.05-8.09,3.75-8.09,8.19
	C560.26,417.66,563.84,421.25,568.36,421.29z"/>
<path class="st0" d="M567.96,340.94c-4.57,0.07-7.99,3.62-7.92,8.22c0.07,4.51,3.74,8.09,8.22,8c4.43-0.09,8.08-3.88,8-8.29
	C576.17,344.39,572.49,340.87,567.96,340.94z"/>
<path class="st0" d="M547.06,399.63c4.53-0.06,7.97-3.69,7.83-8.25c-0.13-4.31-3.8-7.83-8.08-7.74c-4.27,0.08-7.88,3.74-7.91,7.99
	C538.87,396.05,542.58,399.69,547.06,399.63z"/>
<path class="st0" d="M560.15,327.67c-0.08,4.54,3.42,8.12,7.95,8.12c4.33,0,7.91-3.47,8.02-7.79c0.11-4.34-3.66-8.19-8.03-8.19
	C563.8,319.82,560.22,323.35,560.15,327.67z"/>
<path class="st0" d="M554.9,370.67c0.08-4.55-3.42-8.12-7.96-8.13c-4.34,0-7.92,3.47-8.04,7.79c-0.11,4.34,3.67,8.21,8.04,8.2
	C551.24,378.55,554.82,375,554.9,370.67z"/>
<path class="st0" d="M546.78,421.09c4.4,0.07,7.96-3.31,8.08-7.68c0.12-4.49-3.48-8.23-7.93-8.22c-4.3,0.01-7.92,3.6-7.97,7.9
	C538.92,417.41,542.44,421.02,546.78,421.09z"/>
<path class="st0" d="M546.87,341.1c-4.33,0.03-7.85,3.57-7.87,7.9c-0.01,4.3,3.53,7.9,7.84,7.95c4.45,0.06,8.09-3.62,8-8.09
	C554.77,344.5,551.23,341.06,546.87,341.1z"/>
<path class="st0" d="M525.59,378.21c4.25-0.07,7.64-3.49,7.65-7.69c0.01-4.28-3.67-7.9-7.94-7.82c-4.35,0.08-7.7,3.68-7.56,8.11
	C517.88,375.09,521.26,378.28,525.59,378.21z"/>
<path class="st0" d="M539.19,327.78c-0.02,4.43,3.49,7.96,7.85,7.89c4.19-0.06,7.68-3.57,7.72-7.75c0.05-4.36-3.49-7.86-7.92-7.82
	C542.52,320.14,539.22,323.45,539.19,327.78z"/>
<path class="st0" d="M525.29,383.96c-4.31,0.07-7.55,3.38-7.55,7.71c0,4.39,3.56,7.91,7.88,7.8c4.16-0.11,7.62-3.65,7.63-7.79
	C533.26,387.34,529.7,383.89,525.29,383.96z"/>
<path class="st0" d="M575.85,306.41c0.04-4.33-3.22-7.71-7.53-7.81c-4.44-0.11-8.02,3.31-8.05,7.69c-0.03,4.31,3.61,7.94,7.93,7.88
	C572.44,314.12,575.81,310.69,575.85,306.41z"/>
<path class="st0" d="M517.77,413.02c-0.06,4.29,3.21,7.77,7.44,7.92c4.23,0.15,8.01-3.52,8-7.78c0-4.21-3.44-7.63-7.7-7.67
	C521.19,405.46,517.84,408.72,517.77,413.02z"/>
<path class="st0" d="M517.78,348.93c-0.04,4.29,3.24,7.67,7.51,7.73c4.39,0.06,7.97-3.45,7.9-7.76c-0.07-4.13-3.64-7.65-7.76-7.65
	C521.24,341.26,517.82,344.69,517.78,348.93z"/>
<path class="st0" d="M546.93,298.74c-4.28,0-7.64,3.42-7.59,7.7c0.05,4.11,3.36,7.47,7.45,7.56c4.16,0.1,7.77-3.41,7.82-7.59
	C554.66,302.22,551.18,298.74,546.93,298.74z"/>
<path class="st0" d="M525.41,320.27c-4.24,0.01-7.61,3.44-7.55,7.69c0.05,4.08,3.36,7.41,7.44,7.5c4.18,0.09,7.71-3.35,7.75-7.55
	C533.09,323.71,529.63,320.25,525.41,320.27z"/>
<path class="st0" d="M568.33,129.15c-4.22-0.07-7.71,3.32-7.75,7.52c-0.03,4.19,3.44,7.68,7.64,7.67c4.07-0.02,7.44-3.31,7.55-7.39
	C575.88,132.71,572.56,129.22,568.33,129.15z"/>
<path class="st0" d="M504.16,384.52c-4.16,0.06-7.38,3.35-7.36,7.53c0.02,4.13,3.33,7.45,7.44,7.48c4.22,0.02,7.68-3.51,7.56-7.73
	C511.69,387.69,508.3,384.47,504.16,384.52z"/>
<path class="st0" d="M496.8,370.57c0.03,4.13,3.35,7.45,7.46,7.46c4.22,0.02,7.67-3.53,7.54-7.74c-0.12-4.11-3.52-7.33-7.66-7.27
	C499.98,363.09,496.77,366.39,496.8,370.57z"/>
<path class="st0" d="M496.86,413.07c-0.04,4.22,3.14,7.48,7.34,7.52c4.15,0.04,7.53-3.24,7.58-7.35c0.05-4.07-3.33-7.52-7.41-7.58
	C500.26,405.62,496.9,408.92,496.86,413.07z"/>
<path class="st0" d="M525.4,313.75c4.21,0.02,7.44-3.18,7.45-7.39c0.01-4.15-3.29-7.5-7.39-7.51c-4.06-0.01-7.49,3.39-7.51,7.45
	C517.93,310.41,521.26,313.74,525.4,313.75z"/>
<path class="st0" d="M496.87,348.93c-0.04,4.15,3.23,7.52,7.34,7.57c4.06,0.04,7.51-3.34,7.56-7.4c0.05-4.11-3.26-7.46-7.4-7.5
	C500.15,341.56,496.9,344.73,496.87,348.93z"/>
<path class="st0" d="M547.14,144.14c4.2-0.06,7.35-3.32,7.29-7.55c-0.06-4.14-3.44-7.44-7.54-7.36c-4.07,0.08-7.43,3.55-7.36,7.61
	C539.6,140.95,542.99,144.2,547.14,144.14z"/>
<path class="st0" d="M560.87,115.61c0.02,4,3.21,7.28,7.19,7.37c4,0.09,7.56-3.43,7.54-7.44c-0.02-4.1-3.45-7.38-7.61-7.28
	C563.94,108.35,560.85,111.53,560.87,115.61z"/>
<path class="st0" d="M496.95,327.68c-0.08,4.22,3.07,7.47,7.26,7.5c4.14,0.03,7.51-3.27,7.5-7.35c-0.01-3.88-3.29-7.26-7.18-7.42
	C500.48,320.25,497.02,323.56,496.95,327.68z"/>
<path class="st0" d="M525.36,143.99c4.03,0.08,7.3-3.02,7.42-7.02c0.12-4.14-3.17-7.56-7.26-7.56c-3.91,0-7.27,3.32-7.31,7.24
	C518.16,140.61,521.39,143.91,525.36,143.99z"/>
<path class="st0" d="M482.94,384.75c-4.01-0.08-7.29,3.02-7.41,7c-0.13,4.13,3.15,7.55,7.25,7.55c3.92,0,7.25-3.3,7.3-7.22
	C490.13,388.14,486.91,384.83,482.94,384.75z"/>
<path class="st0" d="M497.04,306.43c0.04,4,3.31,7.19,7.32,7.15c3.99-0.04,7.22-3.33,7.17-7.31c-0.05-3.97-3.38-7.24-7.34-7.18
	C500.21,299.14,497,302.43,497.04,306.43z"/>
<path class="st0" d="M482.77,420.39c3.99,0.01,7.24-3.22,7.25-7.21c0.01-3.97-3.25-7.25-7.23-7.25c-3.99,0-7.23,3.24-7.24,7.23
	C475.55,417.15,478.77,420.38,482.77,420.39z"/>
<path class="st0" d="M547.11,108.33c-4-0.04-7.29,3.16-7.34,7.15c-0.05,3.96,3.21,7.29,7.18,7.34c3.98,0.04,7.27-3.19,7.31-7.18
	C554.3,111.64,551.11,108.37,547.11,108.33z"/>
<path class="st0" d="M482.63,356.2c4.03,0.09,7.3-3.1,7.34-7.13c0.03-3.89-3.01-7.11-6.87-7.26c-3.99-0.16-7.38,2.98-7.52,6.97
	C475.44,352.78,478.61,356.11,482.63,356.2z"/>
<path class="st0" d="M568.54,248.49c3.96,0.03,7.03-2.92,7.13-6.86c0.1-4.06-3.03-7.34-7.02-7.37c-3.94-0.03-7.26,3.32-7.2,7.26
	C561.51,245.38,564.64,248.46,568.54,248.49z"/>
<path class="st0" d="M489.85,327.73c-0.05-3.95-3.07-6.94-7.03-6.96c-4.03-0.02-7.27,3.23-7.19,7.2c0.08,3.81,3.29,6.99,7.1,7.03
	C486.71,335.03,489.9,331.78,489.85,327.73z"/>
<path class="st0" d="M518.5,115.56c0,3.98,2.98,7,6.95,7.03c3.91,0.03,7.1-3.02,7.2-6.87c0.09-3.92-3.28-7.33-7.2-7.28
	C521.6,108.49,518.5,111.67,518.5,115.56z"/>
<path class="st0" d="M482.77,299.36c-3.88,0.01-7.08,3.17-7.08,6.99c0.01,3.78,3.3,7.07,7.08,7.07c3.82,0,6.98-3.19,6.99-7.08
	C489.77,302.39,486.73,299.35,482.77,299.36z"/>
<path class="st0" d="M540.45,241.32c-0.05,3.96,2.96,7.05,6.9,7.08c3.9,0.03,7.11-3.06,7.17-6.9c0.05-3.76-3.21-7.1-6.98-7.17
	C543.73,234.26,540.5,237.44,540.45,241.32z"/>
<path class="st0" d="M511.39,136.77c0.02-3.98-2.95-7.02-6.92-7.07c-3.91-0.05-7.12,2.97-7.24,6.83c-0.12,3.91,3.24,7.34,7.16,7.32
	C508.24,143.83,511.37,140.66,511.39,136.77z"/>
<path class="st0" d="M461.42,398.96c3.93-0.06,6.93-3.22,6.81-7.19c-0.11-3.74-3.22-6.8-6.93-6.81c-3.78-0.01-7.1,3.32-7.06,7.1
	C454.28,395.91,457.52,399.02,461.42,398.96z"/>
<path class="st0" d="M468.22,413.17c0-3.91-3.11-6.98-7.03-6.93c-3.74,0.04-6.81,3.05-6.91,6.77c-0.1,3.77,3.13,7.11,6.92,7.17
	C465.02,420.24,468.22,417.04,468.22,413.17z"/>
<path class="st0" d="M461.19,355.93c3.9,0.05,7.02-3.02,7.02-6.92c0-3.87-3.19-7.05-7.01-7c-3.67,0.05-6.8,3.14-6.91,6.82
	C454.17,352.64,457.33,355.89,461.19,355.93z"/>
<path class="st0" d="M504.24,108.64c-3.86,0.08-6.97,3.4-6.79,7.23c0.18,3.75,3.29,6.66,7.05,6.6c3.87-0.07,6.92-3.3,6.76-7.19
	C511.11,111.54,507.96,108.56,504.24,108.64z"/>
<path class="st0" d="M482.85,129.86c-3.77,0.01-6.79,3.02-6.84,6.8c-0.04,3.78,2.93,6.85,6.7,6.93c3.9,0.08,7.07-3.07,7.01-6.96
	C489.69,132.89,486.59,129.85,482.85,129.86z"/>
<path class="st0" d="M454.41,327.97c0.07,3.76,3.16,6.78,6.93,6.75c3.91-0.03,6.99-3.27,6.83-7.17c-0.15-3.73-3.34-6.69-7.08-6.58
	C457.31,321.08,454.34,324.2,454.41,327.97z"/>
<path class="st0" d="M519.07,241.56c0.07,3.73,3.19,6.76,6.92,6.73c3.9-0.03,6.96-3.26,6.79-7.17c-0.16-3.78-3.29-6.67-7.07-6.55
	C521.94,234.7,519,237.79,519.07,241.56z"/>
<path class="st0" d="M568.59,226.79c3.73,0.01,6.83-3.04,6.88-6.77c0.05-3.9-3.12-7.04-7.02-6.96c-3.77,0.08-6.75,3.16-6.7,6.93
	C561.8,223.77,564.82,226.78,568.59,226.79z"/>
<path class="st0" d="M554.17,219.87c-0.03-3.87-2.99-6.75-6.88-6.68c-3.67,0.06-6.6,2.98-6.67,6.62c-0.06,3.7,3.07,6.9,6.78,6.92
	C551.18,226.75,554.19,223.69,554.17,219.87z"/>
<path class="st0" d="M454.55,306.36c0.01,3.87,2.97,6.76,6.85,6.71c3.67-0.05,6.61-2.95,6.69-6.6c0.08-3.7-3.04-6.91-6.75-6.94
	C457.57,299.5,454.54,302.54,454.55,306.36z"/>
<path class="st0" d="M446.81,391.9c-0.05-3.84-3.02-6.67-6.89-6.58c-3.63,0.09-6.55,3.03-6.58,6.64c-0.03,3.66,3.14,6.85,6.8,6.83
	C443.88,398.77,446.86,395.7,446.81,391.9z"/>
<path class="st0" d="M482.74,108.91c-3.83,0.06-6.67,3.09-6.52,6.96c0.13,3.61,3.21,6.53,6.79,6.44c3.54-0.08,6.59-3.17,6.61-6.71
	C489.64,111.89,486.53,108.85,482.74,108.91z"/>
<path class="st0" d="M440.05,342.36c-3.64,0.02-6.62,2.95-6.69,6.55c-0.07,3.64,3.16,6.89,6.81,6.85c3.6-0.04,6.55-3,6.6-6.64
	C446.82,345.26,443.91,342.33,440.05,342.36z"/>
<path class="st0" d="M511.09,241.39c-0.02-3.86-2.98-6.72-6.86-6.62c-3.62,0.09-6.57,3.1-6.54,6.69c0.03,3.66,3.32,6.84,6.95,6.71
	C508.26,248.04,511.11,245.04,511.09,241.39z"/>
<path class="st0" d="M440.2,419.82c3.85-0.04,6.69-3.04,6.57-6.91c-0.11-3.61-3.16-6.54-6.74-6.49c-3.53,0.06-6.6,3.13-6.66,6.66
	C433.31,416.8,436.42,419.86,440.2,419.82z"/>
<path class="st0" d="M532.56,219.7c-0.1-3.68-3.04-6.47-6.75-6.41c-3.62,0.06-6.61,3.09-6.57,6.67c0.03,3.68,3.37,6.84,7,6.64
	C529.87,226.42,532.66,223.37,532.56,219.7z"/>
<path class="st0" d="M454.76,137.03c0.15,3.68,3.12,6.42,6.84,6.32c3.61-0.1,6.57-3.19,6.48-6.76c-0.1-3.69-3.47-6.8-7.09-6.55
	C457.34,130.3,454.61,133.36,454.76,137.03z"/>
<path class="st0" d="M433.47,327.79c-0.03,3.6,2.97,6.62,6.6,6.64c3.69,0.02,6.61-2.86,6.64-6.54c0.02-3.64-2.93-6.67-6.54-6.7
	C436.6,321.16,433.5,324.21,433.47,327.79z"/>
<path class="st0" d="M568.48,205.34c3.64,0.06,6.7-2.86,6.77-6.48c0.07-3.56-2.94-6.69-6.54-6.76c-3.6-0.08-6.65,2.89-6.71,6.53
	C561.95,202.33,564.8,205.28,568.48,205.34z"/>
<path class="st0" d="M483.3,247.91c3.67-0.01,6.55-2.95,6.48-6.62c-0.06-3.51-2.89-6.35-6.38-6.41c-3.63-0.06-6.62,2.85-6.66,6.47
	C476.71,244.98,479.66,247.93,483.3,247.91z"/>
<path class="st0" d="M540.94,198.8c0.03,3.64,3.02,6.56,6.64,6.48c3.62-0.08,6.5-3.11,6.39-6.74c-0.1-3.48-2.97-6.27-6.48-6.3
	C543.81,192.23,540.91,195.13,540.94,198.8z"/>
<path class="st0" d="M461.26,122c3.58,0.06,6.41-2.62,6.54-6.18c0.13-3.68-2.71-6.71-6.34-6.76c-3.61-0.05-6.62,2.95-6.59,6.56
	C454.9,119.12,457.72,121.95,461.26,122z"/>
<path class="st0" d="M498,219.94c0.01,3.58,2.74,6.35,6.31,6.41c3.69,0.06,6.65-2.84,6.63-6.47c-0.03-3.6-3.1-6.57-6.69-6.46
	C500.75,213.52,497.99,216.4,498,219.94z"/>
<path class="st0" d="M418.53,419.64c3.44,0.05,6.45-2.82,6.56-6.28c0.12-3.63-2.83-6.6-6.53-6.58c-3.6,0.03-6.32,2.77-6.33,6.37
	C412.24,416.72,415.02,419.59,418.53,419.64z"/>
<path class="st0" d="M412.24,391.88c-0.06,3.61,2.61,6.42,6.2,6.5c3.71,0.09,6.7-2.81,6.66-6.44c-0.04-3.45-2.98-6.38-6.43-6.41
	C415.16,385.51,412.3,388.34,412.24,391.88z"/>
<path class="st0" d="M433.87,136.69c-0.02,3.57,2.79,6.45,6.3,6.48c3.44,0.02,6.44-2.93,6.48-6.38c0.04-3.5-2.83-6.37-6.38-6.4
	C436.64,130.36,433.89,133.08,433.87,136.69z"/>
<path class="st0" d="M525.89,205.19c3.44,0.02,6.44-2.93,6.49-6.37c0.04-3.5-2.82-6.37-6.37-6.4c-3.62-0.03-6.38,2.68-6.4,6.3
	C519.58,202.28,522.38,205.16,525.89,205.19z"/>
<path class="st0" d="M418.67,334.24c3.44-0.03,6.43-3.11,6.35-6.52c-0.08-3.52-3.03-6.28-6.6-6.18c-3.45,0.09-6.09,2.81-6.1,6.27
	C412.3,331.37,415.18,334.28,418.67,334.24z"/>
<path class="st0" d="M483.45,213.57c-3.44-0.11-6.51,2.89-6.52,6.34c-0.01,3.37,2.77,6.19,6.18,6.27c3.46,0.09,6.28-2.52,6.44-5.94
	C489.71,216.68,486.97,213.68,483.45,213.57z"/>
<path class="st0" d="M461.68,235.06c-3.46,0.07-6.41,3.2-6.24,6.62c0.17,3.41,3,6.05,6.44,6c3.58-0.05,6.31-2.94,6.17-6.54
	C467.92,237.74,465.03,234.99,461.68,235.06z"/>
<path class="st0" d="M433.97,115.55c-0.01,3.41,2.66,6.17,6.06,6.26c3.53,0.09,6.46-2.73,6.47-6.22c0.01-3.46-2.99-6.4-6.44-6.3
	C436.68,109.38,433.98,112.16,433.97,115.55z"/>
<path class="st0" d="M504.44,192.51c-3.41,0-6.16,2.67-6.24,6.07c-0.09,3.53,2.74,6.46,6.24,6.46c3.33,0,6.19-2.78,6.29-6.12
	C510.84,195.45,507.97,192.51,504.44,192.51z"/>
<path class="st0" d="M396.99,385.94c-3.42,0.06-6.14,2.9-6.01,6.29c0.13,3.23,2.88,5.9,6.1,5.92c3.39,0.03,6.14-2.75,6.12-6.19
	C403.17,388.47,400.5,385.88,396.99,385.94z"/>
<path class="st0" d="M390.98,413.19c0.02,3.39,2.82,6.1,6.26,6.04c3.36-0.05,5.9-2.59,5.96-5.95c0.06-3.43-2.64-6.25-6.03-6.27
	C393.81,407,390.96,409.84,390.98,413.19z"/>
<path class="st0" d="M455.77,220.06c0.07,3.3,2.73,5.95,5.99,5.97c3.33,0.02,6.22-2.92,6.14-6.24c-0.08-3.4-2.95-6.03-6.41-5.89
	C458.14,214.04,455.7,216.67,455.77,220.06z"/>
<path class="st0" d="M434.51,241.36c-0.04,3.33,2.89,6.23,6.21,6.17c3.27-0.06,5.89-2.74,5.92-6.04c0.03-3.38-2.44-5.98-5.79-6.09
	C437.38,235.29,434.54,237.97,434.51,241.36z"/>
<path class="st0" d="M483.14,192.64c-3.39,0.09-6.02,2.97-5.87,6.43c0.14,3.34,2.78,5.78,6.17,5.7c3.3-0.08,5.94-2.74,5.95-6.01
	C489.4,195.43,486.45,192.55,483.14,192.64z"/>
<path class="st0" d="M391.04,327.93c0.06,3.26,2.79,5.89,6.09,5.89c3.5-0.01,6.1-2.73,5.97-6.25c-0.12-3.28-2.94-5.92-6.17-5.8
	C393.72,321.89,390.98,324.76,391.04,327.93z"/>
<path class="st0" d="M418.74,109.62c-3.31-0.02-6.04,2.64-6.06,5.91c-0.02,3.19,2.79,6.04,5.99,6.06c3.26,0.03,5.97-2.68,5.98-5.99
	C424.67,112.25,422.09,109.64,418.74,109.62z"/>
<path class="st0" d="M434.73,219.92c0,3.26,2.73,5.94,5.98,5.89c3.14-0.05,5.71-2.59,5.78-5.73c0.08-3.28-2.53-5.99-5.8-6.04
	C437.42,213.99,434.73,216.64,434.73,219.92z"/>
<path class="st0" d="M455.9,198.66c-0.05,3.28,2.59,5.96,5.86,5.98c3.28,0.01,5.94-2.67,5.9-5.94c-0.04-3.14-2.56-5.71-5.71-5.82
	C458.68,192.77,455.95,195.38,455.9,198.66z"/>
<path class="st0" d="M370.13,413.02c-0.08,3.14,2.44,5.84,5.58,5.98c3.31,0.15,6.03-2.48,6.03-5.83c0-3.24-2.48-5.74-5.71-5.78
	C372.81,407.36,370.21,409.84,370.13,413.02z"/>
<path class="st0" d="M413.34,241.31c-0.05,3.24,2.39,5.79,5.61,5.87c3.22,0.08,5.86-2.35,6-5.52c0.14-3.27-2.54-6.08-5.82-6.09
	C415.97,235.57,413.39,238.11,413.34,241.31z"/>
<path class="st0" d="M370.12,392.15c0.08,3.28,2.83,5.81,6.15,5.64c3.18-0.16,5.57-2.75,5.49-5.95c-0.08-3.17-2.64-5.68-5.79-5.68
	C372.71,386.16,370.04,388.9,370.12,392.15z"/>
<path class="st0" d="M375.87,322.16c-3.18,0.04-5.75,2.65-5.68,5.78c0.06,3.1,2.77,5.72,5.85,5.68c3.14-0.04,5.64-2.65,5.6-5.85
	C381.6,324.51,379.13,322.12,375.87,322.16z"/>
<path class="st0" d="M397.18,109.83c-3.13,0.02-5.66,2.66-5.6,5.86c0.05,3.11,2.41,5.47,5.52,5.52c3.19,0.06,5.83-2.47,5.86-5.6
	C402.97,112.54,400.24,109.81,397.18,109.83z"/>
<path class="st0" d="M413.53,220.05c0.06,3.07,2.48,5.45,5.56,5.46c3.16,0.01,5.79-2.63,5.7-5.73c-0.09-2.96-2.68-5.51-5.63-5.53
	C416.04,214.22,413.47,216.87,413.53,220.05z"/>
<path class="st0" d="M435.02,198.72c-0.01,3.17,2.64,5.81,5.74,5.72c2.96-0.09,5.52-2.7,5.55-5.65c0.03-3.12-2.63-5.7-5.81-5.64
	C437.4,193.21,435.03,195.63,435.02,198.72z"/>
<path class="st0" d="M397.68,235.89c-3.05-0.03-5.56,2.42-5.59,5.47c-0.04,3.04,2.42,5.56,5.46,5.59c3.06,0.03,5.55-2.4,5.59-5.46
	C403.18,238.42,400.75,235.92,397.68,235.89z"/>
<path class="st0" d="M349.03,392.06c0.02,3.09,2.51,5.52,5.57,5.45c3.01-0.07,5.47-2.69,5.36-5.7c-0.11-2.92-2.49-5.21-5.44-5.24
	C351.39,386.54,349,388.93,349.03,392.06z"/>
<path class="st0" d="M354.32,407.67c-3.05,0.08-5.41,2.63-5.29,5.73c0.12,3.1,2.63,5.37,5.76,5.2c2.94-0.16,5.21-2.58,5.17-5.51
	C359.92,410.08,357.33,407.59,354.32,407.67z"/>
<path class="st0" d="M375.98,121.02c2.82,0.05,5.37-2.36,5.51-5.2c0.15-3.02-2.28-5.57-5.36-5.61c-3.01-0.04-5.33,2.15-5.44,5.13
	C370.58,118.43,372.94,120.97,375.98,121.02z"/>
<path class="st0" d="M413.7,198.71c-0.02,2.91,2.35,5.3,5.29,5.36c3.02,0.06,5.36-2.14,5.45-5.13c0.09-3.1-2.34-5.64-5.38-5.61
	C416.21,193.37,413.72,195.87,413.7,198.71z"/>
<path class="st0" d="M371.25,241.41c-0.01,2.8,2.23,5.13,5.04,5.23c2.92,0.1,5.39-2.3,5.39-5.22c0-2.8-2.26-5.12-5.06-5.21
	C373.67,236.12,371.26,238.45,371.25,241.41z"/>
<path class="st0" d="M397.53,193.7c-2.89,0.05-5.02,2.26-4.96,5.17c0.05,2.82,2.4,5.09,5.17,5.02c2.77-0.07,5.07-2.47,5.01-5.23
	C402.7,195.86,400.38,193.65,397.53,193.7z"/>
<path class="st0" d="M349.43,115.54c-0.02,2.78,2.27,5.05,5.1,5.06c2.9,0.01,5.05-2.14,5.06-5.03c0-2.83-2.25-5.13-5.03-5.12
	C351.81,110.45,349.45,112.8,349.43,115.54z"/>
<path class="st0" d="M327.81,392.2c0.11,2.79,2.44,4.96,5.27,4.9c2.99-0.06,5.17-2.46,4.97-5.48c-0.19-2.81-2.59-4.94-5.38-4.77
	C329.9,387.02,327.7,389.43,327.81,392.2z"/>
<path class="st0" d="M333.4,418.33c2.77-0.05,5.06-2.38,5.06-5.15c0.01-2.92-2.44-5.23-5.4-5.1c-2.86,0.12-4.95,2.39-4.86,5.27
	C328.29,416.15,330.62,418.38,333.4,418.33z"/>
<path class="st0" d="M350.01,241.29c-0.07,2.64,2.07,4.91,4.74,5.02c2.69,0.11,4.96-1.94,5.1-4.6c0.15-2.82-2.06-5.21-4.85-5.24
	C352.39,236.44,350.09,238.67,350.01,241.29z"/>
<path class="st0" d="M376.55,193.92c-2.69-0.05-4.86,2.1-4.87,4.82c0,2.61,1.94,4.66,4.54,4.78c2.72,0.13,4.98-1.93,5.07-4.62
	C381.38,196.26,379.2,193.97,376.55,193.92z"/>
<path class="st0" d="M316.49,412.78c-0.19-2.57-2.46-4.57-5-4.39c-2.53,0.17-4.59,2.48-4.47,4.99c0.13,2.72,2.46,4.71,5.24,4.48
	C314.89,417.63,316.69,415.47,316.49,412.78z"/>
<path class="st0" d="M307.02,391.93c-0.05,2.52,2.08,4.76,4.61,4.86c2.56,0.1,4.75-1.93,4.87-4.53c0.14-2.83-1.9-4.97-4.71-4.96
	C309.18,387.31,307.06,389.35,307.02,391.93z"/>
<path class="st0" d="M333.51,236.87c-2.59-0.02-4.65,2.07-4.58,4.67c0.06,2.43,2.07,4.43,4.5,4.45c2.54,0.03,4.7-2.16,4.62-4.7
	C337.97,238.86,335.95,236.89,333.51,236.87z"/>
<path class="st0" d="M350.46,198.69c-0.03,2.44,1.98,4.52,4.42,4.57c2.46,0.05,4.5-1.93,4.54-4.42c0.04-2.51-1.89-4.51-4.4-4.54
	C352.52,194.27,350.49,196.22,350.46,198.69z"/>
<path class="st0" d="M286,392.09c0.04,2.41,1.83,4.2,4.25,4.23c2.49,0.03,4.54-1.99,4.48-4.41c-0.06-2.23-2.1-4.26-4.33-4.31
	C287.97,387.54,285.96,389.6,286,392.09z"/>
<path class="st0" d="M290.39,408.89c-2.41-0.04-4.29,1.73-4.36,4.12c-0.08,2.48,1.95,4.59,4.37,4.53c2.25-0.06,4.27-2.12,4.27-4.37
	C294.68,410.88,292.73,408.93,290.39,408.89z"/>
<path class="st0" d="M329.41,198.63c-0.06,2.31,1.6,4.1,3.88,4.19c2.26,0.09,4.15-1.59,4.31-3.81c0.16-2.3-1.77-4.38-4.09-4.4
	C331.28,194.6,329.46,196.38,329.41,198.63z"/>
<path class="st0" d="M265.27,413.19c0.01,2.11,1.7,3.81,3.81,3.85c2.23,0.04,4.06-1.84,3.95-4.06c-0.1-2.08-1.92-3.78-3.99-3.71
	C266.95,409.33,265.26,411.09,265.27,413.19z"/>
<path class="st0" d="M265.26,391.93c-0.04,2.21,1.79,4.05,3.98,4c2.04-0.05,3.79-1.81,3.84-3.85c0.05-2.19-1.81-4.01-4.01-3.96
	C266.96,388.17,265.3,389.83,265.26,391.93z"/>
<path class="st0" d="M312.31,195.08c-2.1,0-3.6,1.44-3.67,3.52c-0.08,2.14,1.6,3.93,3.69,3.92c2.05-0.01,3.84-1.89,3.74-3.93
	C315.97,196.63,314.32,195.08,312.31,195.08z"/>
<path class="st0" d="M287.54,198.68c-0.04,1.71,1.38,3.21,3.12,3.28c1.78,0.08,3.25-1.22,3.37-2.99c0.13-1.86-1.4-3.51-3.24-3.5
	C289.09,195.49,287.57,196.99,287.54,198.68z"/>
<path class="st0" d="M266.57,198.9c0.09,1.46,1.46,2.61,2.96,2.49c1.54-0.12,2.58-1.41,2.4-2.98c-0.16-1.36-1.39-2.43-2.72-2.38
	C267.79,196.08,266.49,197.5,266.57,198.9z"/>
<path class="st0" d="M567.99,470.56c-4.58-0.07-8.34,3.6-8.37,8.18c-0.03,4.58,3.69,8.32,8.26,8.3c4.44-0.02,8.08-3.57,8.21-8.03
	C576.23,474.45,572.56,470.63,567.99,470.56z"/>
<path class="st0" d="M546.48,486.75c4.53-0.06,7.97-3.69,7.83-8.25c-0.13-4.31-3.8-7.83-8.08-7.74c-4.27,0.08-7.88,3.74-7.91,7.99
	C538.28,483.17,541.99,486.81,546.48,486.75z"/>
<path class="st0" d="M524.7,471.09c-4.31,0.07-7.55,3.38-7.55,7.71c0,4.39,3.56,7.91,7.88,7.8c4.16-0.11,7.62-3.65,7.63-7.79
	C532.67,474.47,529.11,471.02,524.7,471.09z"/>
<path class="st0" d="M503.57,471.65c-4.16,0.06-7.38,3.35-7.36,7.53c0.02,4.13,3.33,7.45,7.44,7.48c4.22,0.02,7.68-3.51,7.56-7.73
	C511.1,474.82,507.71,471.59,503.57,471.65z"/>
<path class="st0" d="M482.36,471.87c-4.01-0.08-7.29,3.02-7.41,7c-0.13,4.13,3.15,7.55,7.25,7.55c3.92,0,7.25-3.3,7.3-7.22
	C489.54,475.26,486.33,471.95,482.36,471.87z"/>
<path class="st0" d="M460.84,486.08c3.93-0.06,6.93-3.22,6.81-7.19c-0.11-3.74-3.22-6.8-6.93-6.81c-3.78-0.01-7.1,3.32-7.06,7.1
	C453.69,483.03,456.93,486.14,460.84,486.08z"/>
<path class="st0" d="M446.22,479.02c-0.05-3.84-3.02-6.67-6.89-6.58c-3.63,0.09-6.55,3.03-6.58,6.64c-0.03,3.66,3.14,6.85,6.8,6.83
	C443.3,485.89,446.27,482.82,446.22,479.02z"/>
<path class="st0" d="M411.65,479c-0.06,3.61,2.61,6.42,6.2,6.5c3.71,0.09,6.7-2.81,6.66-6.44c-0.04-3.45-2.98-6.38-6.43-6.41
	C414.57,472.63,411.71,475.46,411.65,479z"/>
<path class="st0" d="M396.4,473.06c-3.42,0.06-6.14,2.9-6.01,6.29c0.13,3.23,2.88,5.9,6.1,5.92c3.39,0.03,6.14-2.75,6.12-6.19
	C402.59,475.59,399.91,473,396.4,473.06z"/>
<path class="st0" d="M369.53,479.27c0.08,3.28,2.83,5.81,6.15,5.64c3.18-0.16,5.57-2.75,5.49-5.95c-0.08-3.17-2.64-5.68-5.79-5.68
	C372.13,473.28,369.45,476.02,369.53,479.27z"/>
<path class="st0" d="M348.44,479.18c0.02,3.09,2.51,5.52,5.57,5.45c3.01-0.07,5.47-2.69,5.36-5.7c-0.11-2.92-2.49-5.21-5.44-5.24
	C350.81,473.67,348.42,476.05,348.44,479.18z"/>
<path class="st0" d="M327.22,479.32c0.11,2.79,2.44,4.96,5.27,4.9c2.99-0.06,5.17-2.46,4.97-5.48c-0.19-2.81-2.59-4.94-5.38-4.77
	C329.31,474.14,327.12,476.55,327.22,479.32z"/>
<path class="st0" d="M306.43,479.06c-0.05,2.52,2.08,4.76,4.61,4.86c2.56,0.1,4.75-1.93,4.87-4.53c0.14-2.83-1.9-4.97-4.71-4.96
	C308.59,474.43,306.48,476.48,306.43,479.06z"/>
<path class="st0" d="M285.41,479.21c0.04,2.41,1.83,4.2,4.25,4.23c2.49,0.03,4.54-1.99,4.48-4.41c-0.06-2.23-2.1-4.26-4.33-4.31
	C287.38,474.66,285.37,476.72,285.41,479.21z"/>
<path class="st0" d="M264.67,479.05c-0.04,2.21,1.79,4.05,3.98,4c2.04-0.05,3.79-1.81,3.84-3.85c0.05-2.19-1.81-4.01-4.01-3.96
	C266.37,475.29,264.71,476.96,264.67,479.05z"/>
</svg>
