<?xml version="1.0" encoding="utf-8"?>
<!-- Generator: Adobe Illustrator 23.1.0, SVG Export Plug-In . SVG Version: 6.00 Build 0)  -->
<svg version="1.1" id="Слой_1" xmlns="http://www.w3.org/2000/svg" xmlns:xlink="http://www.w3.org/1999/xlink" x="0px" y="0px"
	 viewBox="0 0 841.89 595.28" style="enable-background:new 0 0 841.89 595.28;" xml:space="preserve">
<style type="text/css">
	.st0{fill:#2D9275;}
</style>
<g>
	<path class="st0" d="M547.03,238.9c-3.5,0.04-6.25-2.65-6.26-6.14c-0.01-3.46,2.78-6.28,6.2-6.26c3.29,0.02,6.1,2.77,6.2,6.08
		C553.27,235.98,550.47,238.86,547.03,238.9z"/>
	<path class="st0" d="M540.78,217.53c0.04-3.48,2.85-6.17,6.36-6.07c3.34,0.09,6.05,2.91,6,6.24c-0.05,3.32-2.85,6.1-6.16,6.12
		C543.54,223.84,540.74,221,540.78,217.53z"/>
	<path class="st0" d="M546.83,254.18c-3.34-0.06-6.03-2.85-5.98-6.19c0.05-3.35,2.81-6,6.19-5.95c3.4,0.05,6.01,2.74,5.95,6.15
		C552.93,251.56,550.17,254.24,546.83,254.18z"/>
	<path class="st0" d="M531.69,238.82c-3.34,0.06-6.13-2.63-6.2-5.96c-0.07-3.35,2.6-6.11,5.97-6.17c3.42-0.06,6.11,2.53,6.17,5.93
		C537.68,236,535.04,238.76,531.69,238.82z"/>
	<path class="st0" d="M537.6,217.57c0.02,3.43-2.61,6.08-6.04,6.06c-3.29-0.01-5.96-2.6-6.05-5.86c-0.09-3.32,2.63-6.16,5.97-6.23
		C534.82,211.47,537.57,214.19,537.6,217.57z"/>
	<path class="st0" d="M552.92,202.14c0.05,3.36-2.45,6.01-5.77,6.1c-3.42,0.1-6.22-2.53-6.28-5.89c-0.06-3.32,2.73-6.16,6.06-6.16
		C550.2,196.2,552.87,198.85,552.92,202.14z"/>
	<path class="st0" d="M537.54,248.03c0.03,3.39-2.69,6.14-6.03,6.1c-3.21-0.04-5.93-2.76-5.98-5.97c-0.05-3.33,2.7-6.06,6.09-6.03
		C534.96,242.14,537.52,244.7,537.54,248.03z"/>
	<path class="st0" d="M537.51,202.35c-0.04,3.29-2.66,5.86-5.97,5.84c-3.27-0.02-5.94-2.67-5.96-5.91
		c-0.01-3.28,2.89-6.12,6.15-6.01C534.99,196.37,537.55,199.06,537.51,202.35z"/>
	<path class="st0" d="M546.87,257.53c3.3-0.03,5.95,2.56,5.98,5.85c0.03,3.29-2.59,5.98-5.85,6.02c-3.21,0.04-5.98-2.68-6.03-5.9
		C540.92,260.26,543.6,257.56,546.87,257.53z"/>
	<path class="st0" d="M516.28,226.82c3.29,0.02,5.88,2.67,5.85,5.96c-0.03,3.27-2.73,5.94-5.96,5.9c-3.22-0.04-5.93-2.8-5.9-6.01
		C510.31,229.41,512.99,226.8,516.28,226.82z"/>
	<path class="st0" d="M522.12,217.53c0.04,3.3-2.58,5.97-5.88,5.98c-3.29,0.01-5.98-2.67-5.95-5.94c0.03-3.16,2.62-5.8,5.79-5.89
		C519.34,211.59,522.08,214.25,522.12,217.53z"/>
	<path class="st0" d="M531.53,269.32c-3.29-0.03-5.92-2.77-5.82-6.05c0.1-3.21,2.72-5.73,5.92-5.7c3.28,0.03,5.91,2.76,5.82,6.05
		C537.36,266.81,534.72,269.35,531.53,269.32z"/>
	<path class="st0" d="M547.01,193.01c-3.29,0.04-5.97-2.64-5.94-5.93c0.03-3.2,2.61-5.79,5.81-5.82c3.19-0.03,5.84,2.51,5.94,5.69
		C552.91,190.25,550.3,192.97,547.01,193.01z"/>
	<path class="st0" d="M522.1,248.14c-0.03,3.2-2.6,5.78-5.81,5.82c-3.29,0.04-5.97-2.64-5.94-5.93c0.03-3.3,2.75-5.91,6.05-5.82
		C519.58,242.3,522.13,244.95,522.1,248.14z"/>
	<path class="st0" d="M516.19,196.45c3.23-0.02,5.82,2.51,5.88,5.71c0.05,3.26-2.67,5.99-5.93,5.94c-3.21-0.05-5.73-2.64-5.72-5.87
		C510.43,198.99,512.95,196.47,516.19,196.45z"/>
	<path class="st0" d="M537.42,186.95c-0.03,3.16-2.67,5.78-5.82,5.79c-3.29,0.01-5.89-2.68-5.81-6c0.08-3.24,2.64-5.68,5.9-5.63
		C534.91,181.16,537.45,183.75,537.42,186.95z"/>
	<path class="st0" d="M516.32,269.18c-3.27,0.04-5.79-2.4-5.83-5.65c-0.04-3.22,2.47-5.84,5.65-5.89c3.12-0.05,5.83,2.57,5.89,5.71
		C522.09,266.52,519.52,269.14,516.32,269.18z"/>
	<path class="st0" d="M546.96,272.84c3.22,0.01,5.82,2.63,5.76,5.81c-0.06,3.06-2.63,5.64-5.69,5.7c-3.18,0.06-5.8-2.53-5.82-5.75
		C541.2,275.32,543.69,272.83,546.96,272.84z"/>
	<path class="st0" d="M506.83,217.64c-0.01,3.22-2.63,5.82-5.81,5.76c-3.06-0.06-5.64-2.63-5.7-5.69c-0.06-3.18,2.53-5.8,5.75-5.82
		C504.34,211.87,506.84,214.37,506.83,217.64z"/>
	<path class="st0" d="M506.83,232.63c0.05,3.28-2.42,5.81-5.69,5.82c-3.22,0.01-5.84-2.57-5.82-5.75c0.01-3.05,2.57-5.66,5.63-5.76
		C504.11,226.84,506.78,229.42,506.83,232.63z"/>
	<path class="st0" d="M510.52,186.82c0.04-3.24,2.59-5.69,5.85-5.62c3.08,0.06,5.6,2.6,5.62,5.67c0.02,3.1-2.69,5.82-5.79,5.8
		C513.04,192.65,510.48,190.02,510.52,186.82z"/>
	<path class="st0" d="M525.88,278.46c0.05-3.23,2.61-5.67,5.86-5.59c3.07,0.07,5.59,2.63,5.6,5.69c0.01,3.1-2.71,5.8-5.81,5.78
		C528.38,284.29,525.83,281.65,525.88,278.46z"/>
	<path class="st0" d="M506.8,248.15c-0.03,3.23-2.58,5.69-5.83,5.63c-3.08-0.06-5.6-2.59-5.63-5.65c-0.03-3.09,2.67-5.81,5.77-5.81
		C504.27,242.33,506.84,244.96,506.8,248.15z"/>
	<path class="st0" d="M547.05,177.46c-3.25,0.05-5.8-2.45-5.8-5.69c0-3.1,2.49-5.66,5.57-5.74c3.1-0.08,5.86,2.63,5.86,5.75
		C552.67,174.86,550.14,177.42,547.05,177.46z"/>
	<path class="st0" d="M531.55,177.44c-3.13-0.01-5.62-2.49-5.64-5.62c-0.02-3.11,2.47-5.67,5.57-5.74c3.13-0.06,5.85,2.65,5.8,5.79
		C537.22,174.96,534.66,177.46,531.55,177.44z"/>
	<path class="st0" d="M506.75,263.34c0.05,3.11-2.38,5.66-5.47,5.75c-3.19,0.09-5.83-2.46-5.83-5.65c0-3.08,2.53-5.62,5.61-5.65
		C504.15,257.76,506.7,260.25,506.75,263.34z"/>
	<path class="st0" d="M510.58,278.66c-0.05-3.11,2.39-5.66,5.48-5.74c3.19-0.08,5.82,2.48,5.82,5.66c-0.01,3.08-2.54,5.62-5.62,5.64
		C513.17,284.23,510.63,281.75,510.58,278.66z"/>
	<path class="st0" d="M501.06,192.48c-3.16-0.03-5.59-2.54-5.53-5.7c0.06-3.04,2.5-5.46,5.52-5.49c3.1-0.03,5.66,2.51,5.67,5.61
		C506.73,190.01,504.2,192.5,501.06,192.48z"/>
	<path class="st0" d="M480.19,232.7c0.02-3.16,2.51-5.59,5.67-5.54c3.04,0.05,5.47,2.48,5.5,5.49c0.04,3.09-2.49,5.67-5.58,5.68
		C482.67,238.36,480.17,235.83,480.19,232.7z"/>
	<path class="st0" d="M521.79,171.9c-0.06,3.13-2.64,5.59-5.74,5.49c-3.09-0.1-5.56-2.75-5.43-5.83c0.12-3.01,2.61-5.36,5.65-5.34
		C519.42,166.24,521.85,168.73,521.79,171.9z"/>
	<path class="st0" d="M546.88,299.48c-3.13-0.03-5.62-2.57-5.56-5.68c0.07-3.09,2.68-5.58,5.77-5.5c3.01,0.08,5.4,2.55,5.41,5.59
		C552.51,297.06,550.04,299.51,546.88,299.48z"/>
	<path class="st0" d="M480.24,248.1c-0.01-3.09,2.31-5.47,5.39-5.52c3.16-0.05,5.7,2.41,5.7,5.51c0,3.06-2.63,5.64-5.69,5.58
		C482.63,253.6,480.25,251.15,480.24,248.1z"/>
	<path class="st0" d="M537.11,293.89c0.01,3.09-2.32,5.5-5.4,5.56c-3.17,0.06-5.72-2.39-5.73-5.52c-0.01-3.08,2.61-5.66,5.69-5.61
		C534.7,288.38,537.1,290.83,537.11,293.89z"/>
	<path class="st0" d="M552.43,156.69c-0.12,3.01-2.66,5.4-5.65,5.3c-3.06-0.1-5.58-2.8-5.42-5.83c0.16-3.11,2.78-5.41,5.95-5.24
		C550.34,151.1,552.55,153.59,552.43,156.69z"/>
	<path class="st0" d="M485.79,223.16c-3.16,0.02-5.6-2.42-5.58-5.58c0.02-3.04,2.39-5.48,5.4-5.56c3.06-0.08,5.69,2.43,5.74,5.5
		C491.41,220.61,488.92,223.14,485.79,223.16z"/>
	<path class="st0" d="M537.06,156.32c0.05,3.06-2.29,5.55-5.31,5.66c-3.02,0.11-5.72-2.51-5.72-5.55c0-3.01,2.45-5.45,5.49-5.48
		C534.61,150.92,537.01,153.24,537.06,156.32z"/>
	<path class="st0" d="M501.14,166.32c3.05,0.02,5.52,2.49,5.5,5.49c-0.02,2.95-2.6,5.52-5.55,5.5c-3.01-0.01-5.45-2.5-5.44-5.55
		C495.65,168.68,498.05,166.3,501.14,166.32z"/>
	<path class="st0" d="M480.29,263.44c0-3.08,2.39-5.47,5.47-5.46c3.05,0.01,5.53,2.46,5.52,5.47c0,2.95-2.58,5.52-5.53,5.52
		C482.74,268.97,480.29,266.49,480.29,263.44z"/>
	<path class="st0" d="M521.69,293.89c0.01,3.06-2.34,5.46-5.4,5.49c-3.04,0.03-5.52-2.33-5.61-5.34c-0.09-3.02,2.54-5.69,5.57-5.67
		C519.26,288.4,521.68,290.86,521.69,293.89z"/>
	<path class="st0" d="M485.69,192.34c-3.04-0.03-5.41-2.46-5.38-5.51c0.04-3.02,2.53-5.48,5.51-5.43c2.96,0.05,5.47,2.62,5.43,5.57
		C491.21,189.97,488.72,192.37,485.69,192.34z"/>
	<path class="st0" d="M516.24,151c3.05,0.01,5.45,2.45,5.41,5.51c-0.04,2.94-2.41,5.33-5.33,5.39c-2.97,0.06-5.54-2.44-5.58-5.43
		C510.71,153.47,513.2,150.99,516.24,151z"/>
	<path class="st0" d="M464.98,232.72c0-3.03,2.45-5.44,5.48-5.4c2.91,0.03,5.3,2.39,5.36,5.3c0.07,2.99-2.38,5.51-5.38,5.55
		C467.45,238.2,464.98,235.73,464.98,232.72z"/>
	<path class="st0" d="M546.58,314.68c-3.02-0.06-5.38-2.55-5.3-5.58c0.09-2.91,2.5-5.26,5.4-5.26c2.99,0,5.47,2.5,5.44,5.49
		C552.09,312.33,549.6,314.74,546.58,314.68z"/>
	<path class="st0" d="M470.4,223.02c-3.04,0-5.47-2.48-5.41-5.52c0.06-2.93,2.48-5.31,5.4-5.31c3.03,0,5.5,2.52,5.43,5.54
		C475.75,220.66,473.34,223.02,470.4,223.02z"/>
	<path class="st0" d="M465,248.11c-0.01-3.02,2.46-5.46,5.49-5.41c2.92,0.05,5.28,2.44,5.3,5.37c0.01,3.04-2.45,5.47-5.49,5.41
		C467.37,253.42,465.01,251.03,465,248.11z"/>
	<path class="st0" d="M501.17,299.31c-3.02,0.04-5.49-2.42-5.46-5.44c0.02-2.93,2.39-5.3,5.32-5.34c3.04-0.04,5.49,2.4,5.46,5.44
		C506.47,296.9,504.1,299.27,501.17,299.31z"/>
	<path class="st0" d="M536.97,309.23c0.02,3.02-2.45,5.47-5.47,5.43c-2.92-0.04-5.29-2.42-5.32-5.35c-0.03-3.04,2.43-5.48,5.47-5.43
		C534.59,303.93,536.95,306.31,536.97,309.23z"/>
	<path class="st0" d="M491.09,171.67c0.06,2.99-2.2,5.37-5.18,5.45c-3.05,0.08-5.54-2.33-5.54-5.36c0.01-2.92,2.4-5.33,5.32-5.36
		C488.64,166.38,491.03,168.72,491.09,171.67z"/>
	<path class="st0" d="M541.6,141.39c-0.05-2.99,2.23-5.36,5.2-5.43c3.05-0.07,5.53,2.36,5.51,5.39c-0.02,2.92-2.43,5.32-5.35,5.33
		C544.02,146.7,541.64,144.35,541.6,141.39z"/>
	<path class="st0" d="M506.44,156.41c0.01,2.98-2.29,5.31-5.27,5.34c-3.05,0.03-5.5-2.42-5.43-5.45c0.06-2.91,2.5-5.28,5.41-5.25
		C504.08,151.08,506.43,153.47,506.44,156.41z"/>
	<path class="st0" d="M526.27,141.25c0.03-3,2.36-5.28,5.37-5.25c2.96,0.03,5.33,2.43,5.29,5.37c-0.04,2.91-2.5,5.32-5.41,5.29
		C528.59,146.63,526.25,144.22,526.27,141.25z"/>
	<path class="st0" d="M510.93,309.22c0.03-3,2.34-5.27,5.36-5.24c2.96,0.03,5.32,2.42,5.29,5.36c-0.03,2.9-2.5,5.32-5.4,5.29
		C513.24,314.59,510.9,312.19,510.93,309.22z"/>
	<path class="st0" d="M475.69,263.33c0.05,3.02-2.2,5.36-5.19,5.4c-2.97,0.05-5.39-2.27-5.45-5.2c-0.06-2.9,2.33-5.38,5.24-5.45
		C473.22,258.03,475.64,260.38,475.69,263.33z"/>
	<path class="st0" d="M475.67,186.79c0.05,2.96-2.24,5.38-5.17,5.44c-2.87,0.07-5.37-2.34-5.44-5.22c-0.07-2.92,2.28-5.34,5.22-5.39
		C473.29,181.57,475.62,183.8,475.67,186.79z"/>
	<path class="st0" d="M510.98,141.36c-0.02-3.01,2.25-5.31,5.26-5.3c2.96,0.01,5.34,2.41,5.3,5.32c-0.05,2.79-2.41,5.17-5.2,5.24
		C513.42,146.69,511,144.31,510.98,141.36z"/>
	<path class="st0" d="M490.99,293.83c0.04,2.96-2.3,5.38-5.21,5.39c-2.86,0.02-5.35-2.47-5.34-5.34c0.02-2.83,2.31-5.15,5.16-5.21
		C488.61,288.61,490.95,290.84,490.99,293.83z"/>
	<path class="st0" d="M450.06,217.72c-0.05-3,2.24-5.34,5.24-5.33c2.85,0,5.2,2.28,5.27,5.12c0.07,2.85-2.44,5.4-5.3,5.39
		C452.45,222.89,450.11,220.57,450.06,217.72z"/>
	<path class="st0" d="M501.02,304.05c3-0.04,5.32,2.26,5.31,5.26c-0.02,2.85-2.31,5.19-5.14,5.25c-2.84,0.06-5.39-2.47-5.37-5.32
		C495.84,306.41,498.17,304.09,501.02,304.05z"/>
	<path class="st0" d="M455.29,237.95c-2.99,0-5.28-2.34-5.22-5.34c0.05-2.84,2.4-5.17,5.22-5.17c2.86,0,5.36,2.56,5.28,5.4
		C460.49,235.68,458.14,237.95,455.29,237.95z"/>
	<path class="st0" d="M485.71,161.64c-2.85-0.02-5.19-2.31-5.25-5.14c-0.05-2.85,2.47-5.39,5.32-5.37c2.83,0.02,5.15,2.35,5.18,5.2
		C491.01,159.34,488.71,161.66,485.71,161.64z"/>
	<path class="st0" d="M546.72,329.61c-2.95,0.02-5.37-2.4-5.32-5.31c0.06-2.78,2.48-5.18,5.25-5.2c2.91-0.02,5.3,2.41,5.26,5.37
		C551.88,327.36,549.62,329.59,546.72,329.61z"/>
	<path class="st0" d="M455.38,253.28c-2.9,0.05-5.22-2.16-5.3-5.04c-0.08-2.97,2.29-5.43,5.21-5.42c2.79,0.01,5.21,2.42,5.24,5.21
		C460.56,250.87,458.24,253.24,455.38,253.28z"/>
	<path class="st0" d="M531.48,329.59c-2.88-0.05-5.12-2.35-5.1-5.24c0.02-2.86,2.34-5.2,5.18-5.21c2.87-0.02,5.38,2.56,5.27,5.41
		C536.72,327.41,534.35,329.64,531.48,329.59z"/>
	<path class="st0" d="M541.75,126c-0.02-2.86,2.22-5.17,5.07-5.23c2.95-0.05,5.37,2.33,5.32,5.25c-0.04,2.81-2.43,5.16-5.23,5.14
		C544.09,131.16,541.78,128.84,541.75,126z"/>
	<path class="st0" d="M506.29,141.33c-0.01,2.85-2.31,5.18-5.15,5.21c-2.79,0.03-5.2-2.33-5.26-5.13c-0.06-2.92,2.36-5.33,5.31-5.28
		C504.05,136.16,506.3,138.46,506.29,141.33z"/>
	<path class="st0" d="M531.57,120.79c2.85-0.01,5.17,2.3,5.18,5.15c0.01,2.84-2.32,5.18-5.16,5.18c-2.85,0-5.17-2.31-5.17-5.16
		C526.41,123.1,528.71,120.8,531.57,120.79z"/>
	<path class="st0" d="M455.14,268.6c-2.84-0.07-5.09-2.44-5.02-5.29c0.07-2.84,2.45-5.11,5.29-5.03c2.85,0.08,5.12,2.47,5.03,5.3
		C460.36,266.44,458,268.68,455.14,268.6z"/>
	<path class="st0" d="M516.13,329.55c-2.84-0.05-5.11-2.4-5.07-5.25c0.05-2.85,2.4-5.13,5.25-5.08c2.84,0.05,5.14,2.43,5.08,5.26
		C521.33,327.34,518.98,329.6,516.13,329.55z"/>
	<path class="st0" d="M485.5,314.4c-2.88-0.14-5.04-2.56-4.86-5.45c0.17-2.78,2.48-4.9,5.26-4.83c2.85,0.08,5.11,2.49,5.01,5.34
		C490.8,312.32,488.37,314.54,485.5,314.4z"/>
	<path class="st0" d="M475.54,293.92c0,2.86-2.34,5.16-5.22,5.12c-2.79-0.04-5.01-2.23-5.06-5.03c-0.06-2.87,2.22-5.23,5.09-5.25
		C473.21,288.75,475.54,291.07,475.54,293.92z"/>
	<path class="st0" d="M455.34,181.75c2.86,0.03,5.13,2.4,5.06,5.27c-0.07,2.79-2.29,4.98-5.08,5.01c-2.87,0.03-5.2-2.28-5.2-5.14
		C450.14,184.03,452.49,181.72,455.34,181.75z"/>
	<path class="st0" d="M485.63,146.38c-2.82-0.06-4.96-2.25-4.96-5.08c0-2.89,2.35-5.19,5.2-5.11c2.75,0.07,4.99,2.38,5,5.12
		C490.88,144.17,488.54,146.44,485.63,146.38z"/>
	<path class="st0" d="M470.27,151.35c2.91-0.06,5.25,2.2,5.24,5.07c0,2.74-2.25,5.05-4.99,5.12c-2.86,0.08-5.2-2.22-5.21-5.11
		C465.31,153.61,467.45,151.41,470.27,151.35z"/>
	<path class="st0" d="M521.3,126.01c-0.03,2.83-2.19,4.99-5.02,5.01c-2.9,0.02-5.22-2.28-5.17-5.14c0.04-2.74,2.32-5.02,5.06-5.05
		C519.03,120.79,521.32,123.11,521.3,126.01z"/>
	<path class="st0" d="M496.06,324.42c-0.01-2.83,2.1-5.01,4.91-5.07c2.9-0.06,5.24,2.18,5.24,5.03c0.01,2.81-2.39,5.18-5.2,5.12
		C498.26,329.44,496.07,327.2,496.06,324.42z"/>
	<path class="st0" d="M501.01,130.96c-2.82-0.04-4.94-2.22-4.92-5.05c0.02-2.77,2.26-5.03,5-5.04c2.79-0.01,5.19,2.45,5.1,5.23
		C506.1,128.85,503.8,131,501.01,130.96z"/>
	<path class="st0" d="M444.93,232.67c0.02,2.79-2.15,5.07-4.9,5.14c-2.79,0.07-5.23-2.34-5.2-5.13c0.03-2.74,2.3-4.96,5.07-4.96
		C442.75,227.72,444.91,229.85,444.93,232.67z"/>
	<path class="st0" d="M470.4,314.26c-2.82,0.01-5-2.17-4.99-4.99c0-2.77,2.26-5.06,4.99-5.06c2.7,0,5.05,2.36,5.06,5.05
		C475.46,312,473.17,314.26,470.4,314.26z"/>
	<path class="st0" d="M440.01,243.09c2.82,0.04,4.96,2.25,4.91,5.09c-0.05,2.77-2.37,5.03-5.1,4.97c-2.71-0.06-5.02-2.46-4.96-5.16
		C434.92,245.24,437.22,243.05,440.01,243.09z"/>
	<path class="st0" d="M444.93,217.66c-0.02,2.83-2.18,4.96-5.01,4.96c-2.77,0-5.05-2.22-5.08-4.95c-0.03-2.79,2.41-5.21,5.19-5.14
		C442.78,212.6,444.96,214.88,444.93,217.66z"/>
	<path class="st0" d="M470.37,146.26c-2.79-0.01-4.97-2.24-4.93-5.04c0.04-2.67,2.21-4.86,4.86-4.91c2.7-0.06,5.07,2.26,5.1,4.97
		C475.43,144,473.14,146.27,470.37,146.26z"/>
	<path class="st0" d="M444.89,263.34c0.05,2.79-2.17,5.1-4.92,5.13c-2.7,0.03-5.08-2.34-5.07-5.04c0.01-2.65,2.19-4.88,4.86-4.95
		C442.59,258.39,444.84,260.53,444.89,263.34z"/>
	<path class="st0" d="M485.66,319.42c2.79-0.04,5.1,2.18,5.12,4.93c0.02,2.7-2.35,5.08-5.05,5.06c-2.65-0.01-4.87-2.2-4.95-4.87
		C480.71,321.72,482.85,319.47,485.66,319.42z"/>
	<path class="st0" d="M455.23,298.88c-2.77-0.03-5.05-2.35-4.98-5.08c0.07-2.62,2.34-4.87,4.95-4.92c2.73-0.05,5.03,2.24,5.04,5.02
		C460.26,296.72,458.05,298.91,455.23,298.88z"/>
	<path class="st0" d="M444.87,187.02c-0.06,2.77-2.34,4.92-5.13,4.82c-2.66-0.09-4.81-2.31-4.81-4.95c0.01-2.71,2.35-5.02,5.06-4.99
		C442.74,181.95,444.93,184.25,444.87,187.02z"/>
	<path class="st0" d="M455.32,151.48c2.78,0.02,4.96,2.26,4.91,5.05c-0.05,2.67-2.22,4.84-4.87,4.89c-2.7,0.05-5.05-2.26-5.07-4.97
		C450.27,153.71,452.56,151.46,455.32,151.48z"/>
	<path class="st0" d="M490.7,125.93c0.01,2.66-2.14,4.87-4.81,4.95c-2.77,0.07-5.06-2.13-5.07-4.9c-0.01-2.77,2.27-5.03,5.02-4.97
		C488.51,121.06,490.69,123.28,490.7,125.93z"/>
	<path class="st0" d="M470.3,329.23c-2.71-0.05-4.84-2.24-4.79-4.94c0.05-2.66,2.32-4.84,4.97-4.8c2.69,0.05,4.81,2.25,4.76,4.97
		C475.2,327.2,473.05,329.28,470.3,329.23z"/>
	<path class="st0" d="M424.59,237.57c-2.74,0.01-4.86-2.1-4.86-4.84c0-2.72,2.14-4.89,4.84-4.89c2.66-0.01,4.89,2.21,4.89,4.87
		C429.46,235.41,427.3,237.56,424.59,237.57z"/>
	<path class="st0" d="M460.17,309.21c0.04,2.65-2.15,4.91-4.81,4.96c-2.7,0.04-4.88-2.09-4.92-4.81c-0.04-2.74,2.04-4.89,4.78-4.93
		C457.93,304.39,460.13,306.51,460.17,309.21z"/>
	<path class="st0" d="M455.24,145.88c-2.76-0.02-4.82-2.14-4.77-4.92c0.05-2.62,2.13-4.71,4.74-4.76c2.65-0.04,4.92,2.19,4.94,4.85
		C460.16,143.74,457.97,145.9,455.24,145.88z"/>
	<path class="st0" d="M424.6,212.8c2.71,0.01,4.86,2.16,4.84,4.84c-0.01,2.64-2.25,4.86-4.89,4.85c-2.68-0.01-4.81-2.18-4.8-4.89
		C419.76,214.86,421.85,212.78,424.6,212.8z"/>
	<path class="st0" d="M470.47,121.17c2.75,0.04,4.78,2.16,4.71,4.93c-0.07,2.6-2.16,4.68-4.75,4.71c-2.62,0.02-4.9-2.24-4.89-4.87
		C465.56,123.26,467.75,121.13,470.47,121.17z"/>
	<path class="st0" d="M435.14,293.89c0.01-2.75,2.12-4.8,4.88-4.76c2.61,0.04,4.7,2.11,4.76,4.7c0.05,2.62-2.19,4.92-4.82,4.94
		C437.28,298.79,435.13,296.61,435.14,293.89z"/>
	<path class="st0" d="M439.87,161.18c-2.75-0.03-4.78-2.17-4.69-4.94c0.08-2.58,2.26-4.67,4.82-4.63c2.52,0.04,4.72,2.24,4.75,4.76
		C444.79,159.02,442.57,161.21,439.87,161.18z"/>
	<path class="st0" d="M424.79,182.15c2.75-0.01,4.82,2.1,4.77,4.86c-0.05,2.59-2.17,4.7-4.74,4.71c-2.61,0.01-4.9-2.33-4.84-4.92
		C420.05,184.22,422.19,182.15,424.79,182.15z"/>
	<path class="st0" d="M424.46,268.2c-2.74-0.06-4.76-2.22-4.65-5c0.1-2.58,2.31-4.66,4.87-4.59c2.54,0.07,4.7,2.28,4.71,4.81
		C429.4,266.1,427.18,268.26,424.46,268.2z"/>
	<path class="st0" d="M444.67,309.31c-0.02,2.56-2.24,4.74-4.79,4.72c-2.58-0.02-4.69-2.19-4.67-4.79c0.02-2.63,2.11-4.69,4.74-4.67
		C442.56,304.58,444.7,306.74,444.67,309.31z"/>
	<path class="st0" d="M455.29,130.65c-2.6,0.01-4.73-2.14-4.7-4.75c0.03-2.62,2.16-4.69,4.79-4.64c2.5,0.05,4.56,2.11,4.61,4.61
		C460.03,128.46,457.89,130.65,455.29,130.65z"/>
	<path class="st0" d="M439.82,145.76c-2.62-0.06-4.66-2.22-4.58-4.85c0.08-2.5,2.17-4.53,4.67-4.54c2.59-0.01,4.75,2.16,4.72,4.75
		C444.6,143.71,442.42,145.81,439.82,145.76z"/>
	<path class="st0" d="M414.12,217.6c0.01,2.59-2.11,4.68-4.72,4.65c-2.53-0.03-4.53-1.99-4.59-4.52c-0.07-2.61,1.99-4.76,4.58-4.78
		C411.98,212.92,414.11,215.01,414.12,217.6z"/>
	<path class="st0" d="M414.12,232.81c-0.05,2.59-2.21,4.65-4.8,4.58c-2.58-0.07-4.61-2.25-4.5-4.86c0.1-2.53,2.13-4.46,4.66-4.45
		C412.08,228.1,414.17,230.23,414.12,232.81z"/>
	<path class="st0" d="M424.63,289.25c2.59,0.03,4.64,2.18,4.58,4.79c-0.07,2.53-2.06,4.49-4.59,4.52c-2.61,0.02-4.72-2.07-4.71-4.66
		C419.92,291.31,422.04,289.22,424.63,289.25z"/>
	<path class="st0" d="M429.45,156.42c0,2.58-2.17,4.71-4.74,4.65c-2.5-0.05-4.49-2.1-4.5-4.62c-0.01-2.65,2.06-4.68,4.71-4.62
		C427.44,151.88,429.45,153.91,429.45,156.42z"/>
	<path class="st0" d="M414.07,263.38c0.04,2.46-2.02,4.6-4.48,4.69c-2.59,0.09-4.72-2.02-4.7-4.66c0.02-2.57,1.98-4.52,4.55-4.52
		C411.99,258.88,414.04,260.87,414.07,263.38z"/>
	<path class="st0" d="M409.43,182.28c2.46-0.01,4.59,2.06,4.64,4.53c0.06,2.59-2.07,4.69-4.71,4.65c-2.57-0.04-4.49-2.02-4.47-4.6
		C404.91,184.32,406.93,182.28,409.43,182.28z"/>
	<path class="st0" d="M420.33,141.03c0.02-2.47,1.93-4.41,4.4-4.44c2.54-0.04,4.65,2.02,4.62,4.52c-0.03,2.37-2.08,4.44-4.46,4.5
		C422.4,145.67,420.31,143.57,420.33,141.03z"/>
	<path class="st0" d="M424.57,313.61c-2.45,0-4.6-2.18-4.57-4.63c0.04-2.51,2.13-4.5,4.69-4.45c2.47,0.05,4.37,1.97,4.39,4.45
		C429.1,311.52,427.07,313.61,424.57,313.61z"/>
	<path class="st0" d="M444.43,126.06c-0.05,2.56-2.09,4.48-4.68,4.4c-2.43-0.08-4.4-2.09-4.4-4.5c0-2.45,2.17-4.61,4.62-4.58
		C442.48,121.41,444.48,123.51,444.43,126.06z"/>
	<path class="st0" d="M409.52,289.42c2.38,0.04,4.39,2.07,4.42,4.45c0.03,2.49-2.05,4.54-4.57,4.5c-2.53-0.04-4.48-2.11-4.38-4.65
		C405.09,291.32,407.13,289.38,409.52,289.42z"/>
	<path class="st0" d="M409.42,160.86c-2.43-0.02-4.38-1.98-4.4-4.41c-0.02-2.52,2.07-4.54,4.58-4.46c2.42,0.08,4.34,2.11,4.29,4.52
		C413.84,158.94,411.84,160.88,409.42,160.86z"/>
	<path class="st0" d="M394.18,213.17c2.43,0.05,4.37,2.04,4.35,4.47c-0.02,2.51-2.13,4.52-4.65,4.4c-2.41-0.11-4.3-2.16-4.22-4.58
		C389.74,215.05,391.76,213.13,394.18,213.17z"/>
	<path class="st0" d="M398.54,232.79c-0.03,2.43-2.02,4.38-4.45,4.38c-2.52,0-4.53-2.1-4.43-4.62c0.09-2.41,2.13-4.32,4.55-4.25
		C396.63,228.36,398.57,230.37,398.54,232.79z"/>
	<path class="st0" d="M394.14,259.03c2.43,0.02,4.36,2.01,4.34,4.45c-0.02,2.47-1.95,4.36-4.43,4.34c-2.44-0.02-4.39-2-4.36-4.43
		C389.71,260.98,391.73,259,394.14,259.03z"/>
	<path class="st0" d="M429.14,125.97c-0.01,2.45-2,4.42-4.42,4.37c-2.4-0.05-4.38-2.13-4.31-4.52c0.07-2.33,1.98-4.18,4.34-4.2
		C427.26,121.6,429.15,123.47,429.14,125.97z"/>
	<path class="st0" d="M413.79,309.05c-0.01,2.5-1.91,4.36-4.42,4.31c-2.35-0.04-4.25-1.91-4.3-4.24c-0.05-2.39,1.95-4.46,4.35-4.48
		C411.83,304.62,413.8,306.6,413.79,309.05z"/>
	<path class="st0" d="M398.43,186.81c0.04,2.45-1.89,4.46-4.31,4.48c-2.4,0.01-4.43-2.02-4.42-4.41c0.01-2.33,1.89-4.24,4.23-4.31
		C396.45,182.49,398.39,184.32,398.43,186.81z"/>
	<path class="st0" d="M413.75,141.16c-0.04,2.4-1.88,4.2-4.29,4.2c-2.46,0.01-4.44-1.99-4.38-4.41c0.06-2.29,2.05-4.25,4.34-4.26
		C411.85,136.69,413.8,138.7,413.75,141.16z"/>
	<path class="st0" d="M394.06,298.22c-2.29-0.02-4.29-2.06-4.27-4.34c0.02-2.33,1.98-4.23,4.34-4.21c2.4,0.02,4.23,1.88,4.21,4.28
		C398.33,296.31,396.39,298.24,394.06,298.22z"/>
	<path class="st0" d="M379.09,213.39c2.33,0.05,4.21,2.02,4.14,4.33c-0.07,2.3-2.09,4.22-4.37,4.15c-2.32-0.07-4.17-2.04-4.11-4.37
		C374.82,215.15,376.73,213.34,379.09,213.39z"/>
	<path class="st0" d="M378.98,236.95c-2.36,0-4.22-1.87-4.22-4.22c0-2.34,1.91-4.26,4.22-4.26c2.29,0,4.26,1.97,4.26,4.26
		C383.24,235.05,381.32,236.95,378.98,236.95z"/>
	<path class="st0" d="M398.32,156.54c-0.06,2.35-1.97,4.17-4.34,4.11c-2.33-0.05-4.21-2.02-4.14-4.33c0.07-2.3,2.09-4.22,4.37-4.15
		C396.53,152.23,398.38,154.2,398.32,156.54z"/>
	<path class="st0" d="M378.94,267.62c-2.32-0.02-4.21-2-4.14-4.32c0.08-2.25,1.92-4.01,4.2-4c2.37,0.01,4.2,1.92,4.11,4.3
		C383.04,265.87,381.19,267.64,378.94,267.62z"/>
	<path class="st0" d="M394.01,313.21c-2.35-0.05-4.16-2.01-4.05-4.38c0.11-2.27,1.95-3.99,4.23-3.94c2.27,0.05,4.07,1.88,4.07,4.13
		C398.28,311.34,396.33,313.26,394.01,313.21z"/>
	<path class="st0" d="M383.12,187.04c-0.07,2.28-1.89,4.02-4.18,4c-2.36-0.02-4.22-1.96-4.13-4.3c0.09-2.23,1.97-4.03,4.2-4.02
		C381.35,182.74,383.19,184.67,383.12,187.04z"/>
	<path class="st0" d="M398.25,141.04c0.01,2.22-1.83,4.12-4.05,4.18c-2.34,0.06-4.23-1.85-4.19-4.23c0.04-2.31,1.81-4.03,4.13-4.02
		C396.41,136.99,398.23,138.79,398.25,141.04z"/>
	<path class="st0" d="M378.7,289.82c2.19-0.03,4.14,1.91,4.14,4.1c0,2.24-1.89,4.05-4.17,4.02c-2.22-0.03-3.91-1.71-3.96-3.92
		C374.67,291.74,376.46,289.85,378.7,289.82z"/>
	<path class="st0" d="M382.98,156.5c-0.04,2.17-1.81,3.96-3.96,3.98c-2.2,0.03-4.14-1.93-4.1-4.13c0.05-2.24,1.97-4.02,4.25-3.93
		C381.36,152.52,383.02,154.29,382.98,156.5z"/>
	<path class="st0" d="M367.6,232.63c0.04,2.18-1.65,4-3.82,4.1c-2.22,0.1-4.18-1.8-4.16-4.03c0.02-2.16,1.8-3.93,3.97-3.95
		C365.78,228.73,367.56,230.45,367.6,232.63z"/>
	<path class="st0" d="M363.66,213.6c2.16,0.02,3.93,1.81,3.94,3.98c0.02,2.28-1.84,4.08-4.13,4c-2.17-0.08-3.92-1.92-3.86-4.07
		C359.67,215.38,361.53,213.58,363.66,213.6z"/>
	<path class="st0" d="M367.58,263.55c-0.06,2.18-1.89,3.9-4.06,3.84c-2.19-0.06-3.9-1.88-3.83-4.07c0.07-2.19,1.87-3.89,4.06-3.83
		C365.91,259.55,367.64,261.38,367.58,263.55z"/>
	<path class="st0" d="M374.79,308.74c0.15-2.16,2.06-3.81,4.23-3.65c2.18,0.16,3.8,2.04,3.64,4.23c-0.16,2.2-2.03,3.81-4.22,3.65
		C376.27,312.8,374.64,310.92,374.79,308.74z"/>
	<path class="st0" d="M363.51,190.84c-2.17-0.06-3.87-1.87-3.81-4.06c0.06-2.2,1.84-3.88,4.04-3.81c2.19,0.07,3.89,1.86,3.82,4.04
		C367.5,189.18,365.67,190.9,363.51,190.84z"/>
	<path class="st0" d="M378.98,144.95c-2.23,0-3.92-1.72-3.88-3.95c0.03-2.11,1.68-3.8,3.77-3.86c2.15-0.06,4,1.71,4.03,3.87
		C382.94,143.19,381.19,144.95,378.98,144.95z"/>
	<path class="st0" d="M363.63,290.12c2.11,0,3.82,1.66,3.86,3.73c0.04,2.1-1.88,3.99-3.98,3.92c-2.07-0.07-3.71-1.81-3.68-3.91
		C359.86,291.72,361.48,290.13,363.63,290.12z"/>
	<path class="st0" d="M367.46,156.4c0.02,2.07-1.71,3.79-3.81,3.8c-2.15,0.01-3.79-1.61-3.8-3.75c-0.01-2.11,1.68-3.84,3.75-3.86
		C365.63,152.57,367.44,154.36,367.46,156.4z"/>
	<path class="st0" d="M348.3,221.39c-2.07,0.02-3.79-1.7-3.77-3.8c0.01-2.02,1.57-3.63,3.58-3.71c2.09-0.08,3.88,1.57,3.93,3.64
		C352.1,219.56,350.36,221.36,348.3,221.39z"/>
	<path class="st0" d="M352.04,232.68c0.03,2.07-1.69,3.8-3.78,3.79c-2.02-0.01-3.64-1.56-3.73-3.57c-0.09-2.1,1.55-3.88,3.62-3.95
		C350.2,228.89,352.01,230.62,352.04,232.68z"/>
	<path class="st0" d="M367.36,309.07c-0.02,2-1.65,3.64-3.65,3.68c-2.11,0.04-3.81-1.64-3.8-3.75c0.02-2.1,1.78-3.78,3.87-3.69
		C365.79,305.4,367.38,307.07,367.36,309.07z"/>
	<path class="st0" d="M348.35,259.49c1.99,0.04,3.6,1.68,3.62,3.68c0.02,2.1-1.7,3.8-3.8,3.75c-1.99-0.05-3.61-1.69-3.62-3.69
		C344.55,261.13,346.26,259.45,348.35,259.49z"/>
	<path class="st0" d="M367.28,141.04c0.01,2.02-1.57,3.67-3.57,3.72c-2.08,0.05-3.82-1.69-3.78-3.77c0.04-2,1.69-3.59,3.71-3.58
		C365.7,137.42,367.27,138.99,367.28,141.04z"/>
	<path class="st0" d="M351.92,187.01c-0.06,2.05-1.67,3.58-3.72,3.55c-2.01-0.03-3.63-1.67-3.63-3.67c0.01-2.09,1.79-3.78,3.86-3.68
		C350.44,183.3,351.98,184.99,351.92,187.01z"/>
	<path class="st0" d="M351.81,293.89c0.01,1.96-1.46,3.5-3.41,3.56c-2.03,0.06-3.72-1.54-3.73-3.52c-0.01-1.95,1.76-3.67,3.7-3.61
		C350.27,290.38,351.79,291.96,351.81,293.89z"/>
	<path class="st0" d="M348.38,152.9c1.94,0.05,3.42,1.58,3.41,3.53c0,2.01-1.68,3.67-3.65,3.59c-1.85-0.07-3.47-1.74-3.47-3.58
		C344.68,154.46,346.36,152.85,348.38,152.9z"/>
	<path class="st0" d="M336.64,217.69c-0.04,1.92-1.63,3.44-3.56,3.4c-1.91-0.04-3.45-1.63-3.41-3.55c0.04-1.92,1.64-3.46,3.55-3.42
		C335.13,214.16,336.68,215.78,336.64,217.69z"/>
	<path class="st0" d="M333.2,236.22c-1.92,0.03-3.5-1.52-3.52-3.44c-0.03-1.91,1.52-3.5,3.43-3.52c1.93-0.02,3.51,1.51,3.53,3.43
		C336.66,234.59,335.11,236.19,333.2,236.22z"/>
	<path class="st0" d="M336.56,263.3c-0.05,1.94-1.65,3.44-3.56,3.35c-1.89-0.09-3.4-1.76-3.29-3.65c0.11-1.82,1.62-3.23,3.47-3.21
		C335.13,259.8,336.61,261.33,336.56,263.3z"/>
	<path class="st0" d="M351.72,141.02c0.02,1.92-1.53,3.47-3.46,3.46c-1.86-0.01-3.32-1.41-3.4-3.26c-0.08-1.94,1.4-3.55,3.32-3.6
		C350.07,137.56,351.69,139.13,351.72,141.02z"/>
	<path class="st0" d="M333.23,183.5c1.89,0.04,3.31,1.47,3.32,3.36c0.02,1.96-1.55,3.52-3.48,3.47c-1.81-0.05-3.33-1.58-3.35-3.39
		C329.69,185.01,331.26,183.46,333.23,183.5z"/>
	<path class="st0" d="M336.44,293.89c0.02,1.85-1.51,3.39-3.32,3.37c-1.79-0.02-3.37-1.66-3.32-3.43c0.05-1.72,1.51-3.16,3.25-3.2
		C334.96,290.58,336.42,291.99,336.44,293.89z"/>
	<path class="st0" d="M332.87,159.68c-1.73-0.14-3.09-1.69-3-3.41c0.1-1.83,1.75-3.27,3.56-3.1c1.76,0.17,3.06,1.67,2.97,3.43
		C336.31,158.44,334.73,159.83,332.87,159.68z"/>
	<path class="st0" d="M321.01,217.66c-0.03,1.77-1.47,3.16-3.26,3.13c-1.79-0.02-3.17-1.45-3.14-3.24c0.03-1.78,1.49-3.19,3.25-3.15
		C319.6,214.43,321.04,215.92,321.01,217.66z"/>
	<path class="st0" d="M321.01,232.73c0,1.74-1.46,3.21-3.2,3.21c-1.76,0.01-3.19-1.42-3.19-3.2c-0.01-1.79,1.39-3.2,3.19-3.2
		C319.58,229.55,321.01,230.97,321.01,232.73z"/>
	<path class="st0" d="M320.98,263.18c0.02,1.76-1.42,3.16-3.22,3.14c-1.73-0.02-3.02-1.27-3.08-3c-0.06-1.81,1.29-3.27,3.05-3.31
		C319.45,259.98,320.97,261.46,320.98,263.18z"/>
	<path class="st0" d="M336.35,141.08c-0.01,1.71-1.48,3.18-3.19,3.18c-1.74,0-3.14-1.42-3.14-3.19c0-1.8,1.36-3.15,3.16-3.14
		C334.94,137.93,336.36,139.34,336.35,141.08z"/>
	<path class="st0" d="M320.96,186.83c0.04,1.64-1.3,3.07-2.97,3.16c-1.84,0.1-3.25-1.21-3.28-3.03c-0.03-1.71,1.24-3.11,2.91-3.21
		C319.31,183.64,320.91,185.12,320.96,186.83z"/>
	<path class="st0" d="M317.85,159.41c-1.66,0.03-3.04-1.33-3.04-2.99c0-1.66,1.38-3.02,3.05-2.98c1.57,0.03,2.86,1.29,2.92,2.87
		C320.84,157.99,319.53,159.38,317.85,159.41z"/>
	<path class="st0" d="M305.29,232.76c-0.02,1.65-1.25,2.84-2.9,2.82c-1.61-0.02-2.9-1.33-2.87-2.9c0.03-1.53,1.43-2.89,2.95-2.87
		C304.05,229.83,305.31,231.15,305.29,232.76z"/>
	<path class="st0" d="M305.28,217.56c0.03,1.6-1.22,2.93-2.78,2.96c-1.5,0.03-2.92-1.33-2.96-2.84c-0.05-1.55,1.24-2.87,2.83-2.91
		C304.01,214.74,305.25,215.92,305.28,217.56z"/>
	<path class="st0" d="M302.56,260.4c1.53,0.06,2.68,1.27,2.68,2.81c0,1.61-1.36,2.92-2.92,2.84c-1.45-0.07-2.73-1.42-2.73-2.85
		C299.58,261.63,300.96,260.34,302.56,260.4z"/>
	<path class="st0" d="M299.82,156.5c-0.04-1.49,0.98-2.6,2.45-2.69c1.53-0.09,2.83,1.07,2.86,2.56c0.03,1.46-1.28,2.77-2.73,2.74
		C301,159.09,299.85,157.92,299.82,156.5z"/>
	<path class="st0" d="M287.37,230.19c1.44,0.03,2.55,1.21,2.49,2.65c-0.05,1.33-1.15,2.42-2.47,2.46c-1.37,0.04-2.64-1.18-2.64-2.56
		C284.74,231.34,285.95,230.17,287.37,230.19z"/>
	<path class="st0" d="M289.82,263.26c-0.03,1.4-1.28,2.53-2.67,2.43c-1.32-0.09-2.34-1.21-2.31-2.55c0.03-1.34,1.09-2.4,2.43-2.43
		C288.7,260.69,289.86,261.84,289.82,263.26z"/>
	<path class="st0" d="M287.41,158.72c-1.27,0.04-2.31-0.9-2.38-2.16c-0.08-1.33,1.03-2.5,2.34-2.47c1.21,0.02,2.28,1.1,2.29,2.31
		C289.67,157.62,288.65,158.68,287.41,158.72z"/>
	<path class="st0" d="M272.02,230.64c1.2,0.03,2.08,0.95,2.04,2.15c-0.03,1.16-1.04,2.13-2.16,2.09c-1.08-0.04-2.11-1.13-2.08-2.21
		C269.85,231.53,270.85,230.61,272.02,230.64z"/>
	<path class="st0" d="M274.01,263.1c0.06,1.18-0.88,2.15-2.06,2.14c-1.08-0.01-1.98-0.87-2.03-1.94c-0.06-1.15,0.91-2.17,2.07-2.16
		C273.05,261.16,273.96,262.04,274.01,263.1z"/>
	<path class="st0" d="M272.09,158.23c-1,0.06-1.87-0.69-1.94-1.69c-0.07-0.98,0.72-1.89,1.69-1.96c0.92-0.06,1.88,0.79,1.95,1.72
		C273.87,157.28,273.09,158.17,272.09,158.23z"/>
</g>
</svg>
